PathFileType	4	(X/Y/Z)	/Users/visionmauri/2_5_3_f_1_Sports2D/2_5_3_f_1_Sports2D_px_person00.trc
DataRate	CameraRate	NumFrames	NumMarkers	Units	OrigDataRate	OrigDataStartFrame	OrigNumFrames
30.0	30.0	6	22	m	30.0	0	341
Frame#	Time	Hip			RHip			RKnee			RAnkle			RBigToe			RSmallToe			RHeel			LHip			LKnee			LAnkle			LBigToe			LSmallToe			LHeel			Neck			Head			Nose			RShoulder			RElbow			RWrist			LShoulder			LElbow			LWrist			
		X1	Y1	Z1	X2	Y2	Z2	X3	Y3	Z3	X4	Y4	Z4	X5	Y5	Z5	X6	Y6	Z6	X7	Y7	Z7	X8	Y8	Z8	X9	Y9	Z9	X10	Y10	Z10	X11	Y11	Z11	X12	Y12	Z12	X13	Y13	Z13	X14	Y14	Z14	X15	Y15	Z15	X16	Y16	Z16	X17	Y17	Z17	X18	Y18	Z18	X19	Y19	Z19	X20	Y20	Z20	X21	Y21	Z21	X22	Y22	Z22
0	0.0	522.2931504842165	849.4090905448728	0.0	590.1225122214324	878.4793023045795	0.0	593.351982968776	1130.4177824511278	0.0	590.1222703231597	1375.8967904550777	0.0	586.8916093818517	1350.0565014367933	0.0	635.3419669500869	1369.4366847701795	0.0	580.4321637327312	1424.3467070389363	0.0	460.92324758504276	875.2494593910503	0.0	467.38327081573897	1107.810713781048	0.0	467.3829418549317	1366.2073929442881	0.0	483.5327877646399	1417.8999057370065	0.0	448.0028302183298	1421.117833223517	0.0	470.61311011419536	1388.8183129524925	0.0	519.0626273425268	490.88089070486814	0.0	512.6025046988158	397.2117832617389	0.0	541.6727796449666	461.81100240627205	0.0	638.5720305667501	529.6410580000427	0.0	706.4016024853429	691.139907158668	0.0	732.2412865151214	830.0290073263609	0.0	409.2432401723282	539.3307790580837	0.0	331.7238361552342	697.5997774537485	0.0	286.5034198287252	842.9494822658756	0.0
1	0.03343137254901961	522.7516042313091	847.6183332339036	0.0	590.0158506919737	878.697478575954	0.0	593.4145072304145	1130.096658877757	0.0	589.2492594556049	1374.2060873959138	0.0	584.9743381186812	1353.1230404925786	0.0	634.476058184779	1373.381247858202	0.0	579.6142682137264	1422.165127339378	0.0	461.76074016999064	874.6160408259035	0.0	467.7138276926592	1051.4429719292318	0.0	467.8072486921975	1282.7479123001683	0.0	481.24395494361437	1332.0536078629157	0.0	448.36440377781787	1339.7925672124165	0.0	470.97892725386373	1311.0375827954645	0.0	519.806137851939	490.8664227605893	0.0	513.4575969344269	397.6392284564251	0.0	540.2014796496242	462.99017140278124	0.0	639.3051344215908	530.0778707124782	0.0	706.2670977133387	691.2138937595864	0.0	733.2162918481631	832.1353828637727	0.0	408.85466994964486	541.018762928753	0.0	332.45497713386476	698.6458144061787	0.0	287.55989599871	844.5960268730415	0.0
2	0.06686274509803922	523.0389978524512	845.9227427913789	0.0	590.2361129423886	878.8409415727613	0.0	594.195021512718	1129.3612315302958	0.0	588.9691641937131	1372.184742634579	0.0	583.4630133027448	1354.8881158297752	0.0	633.5654045577132	1376.1451992564544	0.0	579.6774667264634	1420.527192608344	0.0	462.32569233412744	874.3790460314201	0.0	469.0803820751323	1001.9017809652555	0.0	469.30522054568445	1192.6428363441762	0.0	479.88557884971465	1238.6098650264214	0.0	448.42811001461087	1250.2871316230771	0.0	471.24489125678474	1227.3676574336785	0.0	521.7479076215451	490.8228163066166	0.0	516.1786936225453	398.0676888759689	0.0	540.4124935275373	464.99190820716177	0.0	640.7172071524914	530.3611488114306	0.0	706.3260474519286	691.2543262511704	0.0	734.7205589352859	833.7304756784029	0.0	410.10284782132567	542.3774700812312	0.0	334.2279051608709	699.2820800991342	0.0	287.76850739872407	846.1042317649917	0.0
3	0.10029411764705883	523.9810476034299	845.4168202140734	0.0	591.5875251556752	879.0402951516957	0.0	596.1879702095574	1128.6668776617728	0.0	589.8295395841218	1370.0849206353737	0.0	583.3871149854399	1354.2544103390242	0.0	632.7509829093186	1376.2332511058285	0.0	581.0920627788928	1419.7806955905685	0.0	463.6020985174885	874.6321835308564	0.0	471.6665696799806	986.8187933105338	0.0	471.70721827224725	1131.2057171986378	0.0	480.80881294421533	1174.6309907591092	0.0	448.56381041592437	1187.9442956514977	0.0	471.52993097454555	1171.76965088809	0.0	525.1704050097085	490.7081271122488	0.0	521.0610854942266	399.0895230229368	0.0	544.4186247048272	467.75243200665284	0.0	642.8692365402774	530.7605667627786	0.0	707.0469495819472	691.220788104175	0.0	736.3154372087241	833.659817982931	0.0	413.7963305211803	542.5274730373859	0.0	337.01760945896393	698.9684357355864	0.0	286.87843891211304	846.5257993580456	0.0
4	0.13372549019607843	526.734126544802	846.3383421873365	0.0	594.5400256788021	879.543773469789	0.0	599.3894581639124	1128.230520554834	0.0	591.6030118276188	1366.7226516260366	0.0	585.259696116802	1352.5770679462346	0.0	633.2023444057152	1374.5716499670161	0.0	583.1128293045733	1417.368841311987	0.0	466.91852913422997	874.9645073954865	0.0	475.0269692381978	993.4700566262323	0.0	473.98081491487665	1115.4390107760696	0.0	483.4956317345344	1157.8082967470414	0.0	449.9307598153436	1171.5332068768864	0.0	472.7443972187532	1160.2257586442122	0.0	529.5837634860413	490.63273166687367	0.0	527.1703779066703	400.8696821150128	0.0	550.4611391653973	470.8000464116141	0.0	645.7440112658077	531.8905419044174	0.0	708.4963525289642	691.22220835134	0.0	737.241319060192	832.3114446407509	0.0	419.01138635144	541.3685275065392	0.0	340.4014288476064	697.4808962348441	0.0	285.82789969237894	844.6199834630147	0.0
5	0.16715686274509806	530.6942864427544	847.5602757682826	0.0	597.9879566004362	880.6451063297319	0.0	602.7829164289889	1127.0077572673313	0.0	593.4201070776046	1361.1841642495824	0.0	588.0848855858179	1351.7932903490396	0.0	635.9331947421131	1373.208117995292	0.0	584.8330192467939	1410.6526436591048	0.0	471.72721696521813	875.4905676281081	0.0	478.6544392662762	981.3879466657849	0.0	475.77405037577694	1119.6729172954836	0.0	486.1951487640053	1159.6449466274703	0.0	453.2237710724211	1175.9268933107585	0.0	475.7157807956991	1166.7311940751906	0.0	534.3126356076195	490.91014117788666	0.0	533.3922968556221	402.2918323233759	0.0	553.8568833713994	473.38930970865954	0.0	649.4927878035774	533.7141426185367	0.0	710.190288644001	691.3365705115515	0.0	737.4404614941152	831.4729199019353	0.0	424.1173888346522	540.2775443886849	0.0	343.9376658632813	695.3030488237597	0.0	285.87023332823054	840.3918633737284	0.0
